<svg id="Capa_2" data-name="Capa 2" xmlns="http://www.w3.org/2000/svg" viewBox="0 0 236.01 342.08"><defs><style>.cls-1{fill:#3a45f6;}.cls-2,.cls-3,.cls-4,.cls-5,.cls-8{fill:#fff;}.cls-2{opacity:0.1;}.cls-12,.cls-3{opacity:0.2;}.cls-4{opacity:0.15;}.cls-5{opacity:0.05;}.cls-6{fill:#262420;}.cls-7{fill:#0e1722;}.cls-9{fill:#c4c8d5;}.cls-10{fill:#e0eaf2;}.cls-11{fill:#2b526c;}.cls-12,.cls-13{fill:#353129;}.cls-14{fill:#444;}.cls-15{fill:#141414;}</style></defs><polygon class="cls-1" points="236.01 289.23 236.01 16.28 155.43 0 42.71 69.7 0 126.57 26.17 184.9 0 218.8 44.9 297.42 175.27 321.04 236.01 289.23"/><polygon class="cls-2" points="155.43 0 236.01 16.28 187.51 83.13 155.43 0"/><polygon class="cls-3" points="187.51 83.13 105.12 31.11 155.43 0 187.51 83.13"/><polygon class="cls-3" points="187.51 83.13 236.01 217.21 236.01 16.28 187.51 83.13"/><polygon class="cls-4" points="26.17 184.9 42.71 69.7 0 126.57 26.17 184.9"/><polygon class="cls-5" points="187.51 83.13 127.07 156.55 105.12 31.11 187.51 83.13"/><polygon class="cls-5" points="105.12 31.11 42.71 69.7 127.07 156.55 105.12 31.11"/><polygon class="cls-5" points="127.07 156.55 26.17 184.9 63.63 135.47 127.07 156.55"/><polygon class="cls-2" points="42.71 69.7 63.63 135.47 26.17 184.9 42.71 69.7"/><polygon class="cls-2" points="127.07 156.55 175.27 321.04 187.51 83.13 127.07 156.55"/><polygon class="cls-2" points="45.56 296.04 127.07 156.55 34.35 242.31 45.56 296.04"/><polygon class="cls-3" points="26.17 184.9 34.35 242.31 127.07 156.55 26.17 184.9"/><polygon class="cls-5" points="175.27 321.04 49.43 297.74 149.06 231.62 175.27 321.04"/><polygon class="cls-6" points="160.8 122.37 163.24 162.63 160.65 174.82 159.43 163.65 156.01 182.03 155.02 174.02 154.78 163.32 152.6 176.58 152.72 164.18 147.17 184.15 144.5 183.67 125.27 169.77 160.8 122.37"/><polygon class="cls-7" points="72.74 184.78 142.74 188.73 149.96 205.69 182.28 238 185.61 275.07 53.96 294.56 48.02 219.71 63.94 204.5 65.25 188.34 72.74 184.78"/><path class="cls-8" d="M78.28,205.06,60,217.42,85.89,319.6s62.25-.48,61.54-1.19,5.47-108.36,5.47-108.36l-8.56-10.45.24-23.53,4.28-10.45,5.34-3.68,10.71-10.49V138.38l-4-7.6h-3.33L153,98.7l-14.5-18.54L110.58,67.9,89.19,71.39,69.86,95.13l-7.6,20.44L62,126.74l-.48,3.8,3.8,8.32L63.45,156l5.94,19.24,2.13,10.93,7.13,13.07Z"/><polygon class="cls-9" points="82.51 267.47 99.14 288.86 116.25 286.48 144.29 256.18 147.85 339 93.44 336.5 64.09 319.51 82.51 267.47"/><polygon class="cls-10" points="145.48 221.85 134.78 272.46 138.59 334.63 173.28 310.72 173.28 248.46 145.48 221.85"/><path class="cls-11" d="M71.37,185.45s-5.26,2.18-4.78,3.6S73,211.63,73,211.63l-1.19,15.92,20.91,21.39-8.55,15.44,6.65,1.9-.23,20-5.47,41.35L20,284.82l-8.55-62.5,23-10.93,22.33-6.89L63,199.75l1.43-12.33Z"/><polygon class="cls-11" points="144.44 189.75 149.52 198.21 150.94 203.79 179.93 217.81 222.23 238.96 236.01 289.33 213.91 327.59 138.11 342.08 159.47 256.18 147.85 244.9 150.47 228.74 145.48 221.85 145.95 198.21 144.41 192.65 144.44 189.75"/><polygon class="cls-12" points="82.25 200.25 88.04 202.84 101.76 200.25 123.33 190.9 139.72 179.67 128.41 197.58 107.47 210.77 92.5 212.01 82.25 200.25"/><polygon class="cls-12" points="137.82 193.51 132.83 217.51 115.25 233.91 131.41 216.32 137.82 193.51"/><polygon class="cls-13" points="109.07 82.54 110.98 86.1 123.33 95.85 130.69 117.71 129.03 107.49 134.02 123.17 137.82 139.75 136.69 127.98 141.68 154.54 141.68 143.31 146.67 156.86 154.69 141.17 155.58 132.62 157.72 142.06 159.15 126.38 160.87 130.78 164.43 137.47 163.6 119.7 164.91 127.63 164.91 112.12 159.68 98.94 164.91 108.92 158.08 90.74 146.5 75.59 130.8 67 120.56 66.06 113.25 71.39 109.07 82.54"/><polygon class="cls-13" points="109.07 82.54 107.11 85.03 86.26 92.88 94.81 87.71 84.12 92.88 74.85 106.6 80.2 95.55 72.81 108.2 63.8 125.19 62.07 131.69 65.34 138.86 63.45 155.97 63.45 166.78 62.07 155.73 62.07 145.99 62.07 142.6 60.04 148.84 60.04 154.54 58.1 147.59 58.1 134.94 58.1 128.52 60.04 117.47 54.46 127.18 59.33 103.71 67.55 89.49 60.04 97.41 69.68 82.54 84.29 65.88 98.99 65.88 90.97 64.63 106.52 63.43 113.07 65.29 115.92 66.68 118.73 68.64 111.7 82.27 109.07 82.54"/><polygon class="cls-14" points="112.74 121.09 120.43 128.12 122.75 135.75 120.33 144.34 109.14 149.37 98.79 148.42 91.01 138.65 95.07 125.84 101.17 122.21 112.74 121.09"/><polygon class="cls-14" points="64.66 150.32 57.11 143.16 54.94 135.47 57.51 126.93 68.7 121.15 74.82 124.03 80.57 133.95 81.74 138.69 77.15 146.53 70.99 150.04 64.66 150.32"/><polygon class="cls-15" points="94.51 127.62 92.15 133.05 86.74 132.05 81 133.86 76.64 127.18 80.51 136.05 80.76 138.48 78.46 144.29 81.74 138.69 81.4 135.16 86.93 132.7 91.89 133.86 90.63 138.84 95.07 143.75 91.34 138.51 94.51 127.62"/><polygon class="cls-4" points="72.16 147.28 65.94 147.81 58.73 141.65 56.74 135.13 59.73 141.47 65.99 147.06 72.16 147.28"/><polygon class="cls-4" points="93.8 138.02 99.68 145.8 108.85 147.44 111.32 146.87 109.04 148.42 99.11 147.19 93.8 138.02"/></svg>