<svg id="Capa_2" data-name="Capa 2" xmlns="http://www.w3.org/2000/svg" viewBox="0 0 236.01 341.91"><defs><style>.cls-1{fill:#3a45f6;}.cls-2,.cls-3,.cls-4,.cls-5,.cls-8{fill:#fff;}.cls-2{opacity:0.1;}.cls-12,.cls-3{opacity:0.2;}.cls-4{opacity:0.15;}.cls-5{opacity:0.05;}.cls-6{fill:#262420;}.cls-7{fill:#0e1722;}.cls-9{fill:#c4c8d5;}.cls-10{fill:#e0eaf2;}.cls-11{fill:#2b526c;}.cls-12,.cls-13{fill:#353129;}.cls-14{fill:#444;}.cls-15{fill:#141414;}</style></defs><polygon class="cls-1" points="236.01 289.23 236.01 16.28 155.43 0 42.71 69.7 0 126.57 26.17 184.9 0 218.8 44.9 297.42 175.27 321.04 236.01 289.23"/><polygon class="cls-2" points="155.43 0 236.01 16.28 187.51 83.13 155.43 0"/><polygon class="cls-3" points="187.51 83.13 105.12 31.11 155.43 0 187.51 83.13"/><polygon class="cls-3" points="187.51 83.13 236.01 217.21 236.01 16.28 187.51 83.13"/><polygon class="cls-4" points="26.17 184.9 42.71 69.7 0 126.57 26.17 184.9"/><polygon class="cls-5" points="187.51 83.13 127.07 156.55 105.12 31.11 187.51 83.13"/><polygon class="cls-5" points="105.12 31.11 42.71 69.7 127.07 156.55 105.12 31.11"/><polygon class="cls-5" points="127.07 156.55 26.17 184.9 63.63 135.47 127.07 156.55"/><polygon class="cls-2" points="42.71 69.7 63.63 135.47 26.17 184.9 42.71 69.7"/><polygon class="cls-2" points="127.07 156.55 175.27 321.04 187.51 83.13 127.07 156.55"/><polygon class="cls-2" points="45.56 296.04 127.07 156.55 34.35 242.31 45.56 296.04"/><polygon class="cls-3" points="26.17 184.9 34.35 242.31 127.07 156.55 26.17 184.9"/><polygon class="cls-5" points="175.27 321.04 49.43 297.74 149.06 231.62 175.27 321.04"/><polygon class="cls-6" points="68.55 162.09 64.09 173.2 68.19 168.21 69.91 178.13 70.8 173.08 71.1 182.94 73.95 180.38 142.92 180.68 146.96 189.89 148.69 182.23 150.59 187.81 152.37 174.03 153.44 182.05 154.63 173.97 158.9 167.14 158.9 168.21 158.07 156.56 118.39 162.27 68.55 162.09"/><polygon class="cls-7" points="73 184.6 143.01 188.56 150.23 205.51 182.55 237.83 185.87 274.9 54.23 294.38 48.29 219.53 64.21 204.33 65.52 188.17 73 184.6"/><path class="cls-8" d="M82.4,82.75s29.46-11.17,45.38-2.85S154.4,105.09,158,121s-2.61,44.91-2.61,44.91l-5.85,1.54-6.27,17.95-2.14,19.48,18.25,12.36L133.49,319.43s-62.26-.48-61.55-1.19-5.46-108.36-5.46-108.36L75,199.43l-.24-23.53-4.27-10.46-5.35-3.68-5-20.94L68,123.18S67.19,89.29,82.4,82.75Z"/><polygon class="cls-9" points="82.51 267.3 99.14 288.68 116.25 286.31 144.29 256.01 147.85 338.82 93.44 336.33 64.09 319.34 82.51 267.3"/><polygon class="cls-10" points="145.48 221.67 134.78 272.29 138.59 334.45 173.28 310.54 173.28 248.29 145.48 221.67"/><path class="cls-11" d="M73,184.6s-6.89,2.85-6.41,4.28S73,211.45,73,211.45l-1.19,15.93,20.91,21.38-8.55,15.45,6.65,1.9-.23,20-5.47,41.35L20,284.64l-8.55-62.49,23-10.93,22.33-6.89L63,199.57l1.43-12.32Z"/><polygon class="cls-11" points="143.01 188.56 149.52 198.03 150.94 203.61 179.93 217.63 222.23 238.78 236.01 289.16 213.91 327.42 138.11 341.91 159.47 256.01 147.85 244.72 150.47 228.56 145.48 221.67 145.95 198.03 143.01 188.56"/><polygon class="cls-12" points="78.25 177.47 98.78 198.74 120.41 199.93 136.21 189.36 120.88 204.21 105.44 201.83 98.9 200.76 78.25 177.47"/><polygon class="cls-13" points="58.03 129.36 58.03 145.75 62.07 139.57 62.07 158.82 69.67 135.65 71.34 128.05 71.34 115.34 77.34 97.45 86.84 87.47 94.8 85.22 97.52 82.69 95.86 70.02 88.59 68.02 72.17 76.13 58.98 101.91 58.03 129.36"/><polygon class="cls-13" points="96.58 80.14 97.92 82.54 110.52 84.33 123.97 88.6 134.75 96.36 144.11 116.14 144.73 112.66 149.46 134.41 149.46 129.95 150.88 149.02 146.78 166.31 155.69 152.41 158.54 145.53 155.87 163.88 159.47 158.82 159.47 163.1 167.1 151.34 166.21 157.22 169.77 149.55 168.35 128.35 169.77 135.47 170.66 122.39 166.03 105.36 162.11 99.12 168.88 107.14 166.74 99.83 154.04 78.42 133.62 65.77 112.57 62.85 100.98 66.15 95.86 70.02 96.58 80.14"/><polygon class="cls-12" points="83.26 192.21 91.58 219.65 100.97 234.38 89.92 220.25 83.26 192.21"/><polygon class="cls-12" points="132.57 200.05 125.09 214.19 118.31 220.96 126.51 214.54 132.57 200.05"/><polygon class="cls-14" points="85.29 117.47 77.61 124.5 75.29 132.14 77.7 140.72 88.9 145.75 99.24 144.81 107.02 135.03 102.96 122.22 96.87 118.59 85.29 117.47"/><polygon class="cls-14" points="138.64 147.31 146.19 140.15 148.37 132.46 145.79 123.92 134.61 118.14 123.22 120.42 117.46 130.33 116.29 135.07 120.89 142.91 127.05 146.42 138.64 147.31"/><polygon class="cls-15" points="103.53 124 105.88 129.43 111.29 128.44 117.03 130.24 121.39 123.56 117.53 132.43 117.27 134.86 119.57 140.67 116.29 135.07 116.64 131.54 111.1 129.08 106.15 130.24 107.4 135.22 102.96 140.13 106.69 134.89 103.53 124"/><polygon class="cls-4" points="125.88 143.67 137.36 144.81 144.57 138.64 146.56 132.12 143.57 138.46 137.31 144.05 125.88 143.67"/><polygon class="cls-4" points="104.24 134.4 98.36 142.18 89.18 143.82 86.72 143.25 88.99 144.81 98.92 143.57 104.24 134.4"/></svg>