<svg id="Capa_2" data-name="Capa 2" xmlns="http://www.w3.org/2000/svg" viewBox="0 0 236.01 341.97"><defs><style>.cls-1{fill:#3a45f6;}.cls-2,.cls-3,.cls-4,.cls-5,.cls-8{fill:#fff;}.cls-2{opacity:0.1;}.cls-12,.cls-3{opacity:0.2;}.cls-4{opacity:0.15;}.cls-5{opacity:0.05;}.cls-6{fill:#262420;}.cls-7{fill:#0e1722;}.cls-9{fill:#c4c8d5;}.cls-10{fill:#e0eaf2;}.cls-11{fill:#2b526c;}.cls-12,.cls-13{fill:#353129;}.cls-14{fill:#444;}.cls-15{fill:#141414;}</style></defs><polygon class="cls-1" points="236.01 289.23 236.01 16.28 155.43 0 42.71 69.7 0 126.57 26.17 184.9 0 218.8 44.9 297.42 175.27 321.04 236.01 289.23"/><polygon class="cls-2" points="155.43 0 236.01 16.28 187.51 83.13 155.43 0"/><polygon class="cls-3" points="187.51 83.13 105.12 31.11 155.43 0 187.51 83.13"/><polygon class="cls-3" points="187.51 83.13 236.01 217.21 236.01 16.28 187.51 83.13"/><polygon class="cls-4" points="26.17 184.9 42.71 69.7 0 126.57 26.17 184.9"/><polygon class="cls-5" points="187.51 83.13 127.07 156.55 105.12 31.11 187.51 83.13"/><polygon class="cls-5" points="105.12 31.11 42.71 69.7 127.07 156.55 105.12 31.11"/><polygon class="cls-5" points="127.07 156.55 26.17 184.9 63.63 135.47 127.07 156.55"/><polygon class="cls-2" points="42.71 69.7 63.63 135.47 26.17 184.9 42.71 69.7"/><polygon class="cls-2" points="127.07 156.55 175.27 321.04 187.51 83.13 127.07 156.55"/><polygon class="cls-2" points="45.56 296.04 127.07 156.55 34.35 242.31 45.56 296.04"/><polygon class="cls-3" points="26.17 184.9 34.35 242.31 127.07 156.55 26.17 184.9"/><polygon class="cls-5" points="175.27 321.04 49.43 297.74 149.06 231.62 175.27 321.04"/><polygon class="cls-6" points="59.88 123.32 54.98 161.25 58.72 174.71 58.69 162.65 62.11 181.03 64.16 173.82 64.4 163.12 65.57 173.83 66.65 164.07 70.93 181.3 74.87 183.56 94.1 169.66 59.88 123.32"/><polygon class="cls-7" points="72.74 184.67 142.74 188.62 149.96 205.58 182.28 237.9 185.61 274.96 53.96 294.45 48.02 219.6 63.94 204.39 65.25 188.23 72.74 184.67"/><path class="cls-8" d="M141.09,205l18.25,12.36L133.49,319.49S71.23,319,71.94,318.3s-5.46-108.36-5.46-108.36L75,199.49,74.79,176l-4.27-10.45-5.35-3.68L54.46,151.34V138.27l4-7.6h3.33l4.51-32.08,14.5-18.54,28-12.26,21.39,3.49L149.51,95l7.61,20.44.23,11.17.48,3.8-3.8,8.32,1.9,17.11L150,175.1,147.85,186l-7.13,13.07Z"/><polygon class="cls-9" points="82.51 267.36 99.14 288.75 116.25 286.37 144.29 256.07 147.85 338.88 93.44 336.39 64.09 319.4 82.51 267.36"/><polygon class="cls-10" points="145.48 221.74 134.78 272.35 138.59 334.52 173.28 310.61 173.28 248.35 145.48 221.74"/><path class="cls-11" d="M73,184.67s-6.89,2.85-6.41,4.27S73,211.52,73,211.52l-1.19,15.92,20.91,21.39-8.55,15.44,6.65,1.9-.23,20-5.47,41.35L20,284.71l-8.55-62.5,23-10.93,22.33-6.89L63,199.64l1.43-12.33Z"/><polygon class="cls-11" points="144.92 191.41 149.52 198.1 150.94 203.68 179.93 217.7 222.23 238.85 236.01 289.22 213.91 327.48 138.11 341.98 159.47 256.07 147.85 244.79 150.47 228.63 145.48 221.74 145.95 198.1 144.25 192.63 144.92 191.41"/><polygon class="cls-12" points="137.13 200.14 131.33 202.73 117.61 200.14 96.05 190.79 79.65 179.56 90.97 197.47 111.91 210.66 126.87 211.91 137.13 200.14"/><polygon class="cls-12" points="81.55 193.4 86.54 217.4 104.13 233.8 87.97 216.21 81.55 193.4"/><polygon class="cls-13" points="110.3 82.43 108.39 85.99 96.05 95.74 88.68 117.6 90.34 107.38 85.35 123.06 81.55 139.64 82.68 127.88 77.69 154.43 77.69 143.2 72.7 156.75 64.68 141.06 63.79 132.51 61.65 141.96 60.22 126.27 58.5 130.67 54.95 137.36 55.77 119.59 54.46 127.52 54.46 112.01 59.69 98.83 54.46 108.81 61.29 90.63 72.88 75.48 88.57 66.89 98.81 65.95 106.12 71.28 110.3 82.43"/><polygon class="cls-13" points="110.3 82.43 112.26 84.92 133.12 92.77 124.56 87.6 135.25 92.77 144.52 106.49 139.18 95.44 146.56 108.09 155.57 125.08 157.3 131.58 154.03 138.75 155.93 155.86 155.93 166.67 157.3 155.62 157.3 145.88 157.3 142.49 159.34 148.73 159.34 154.43 161.27 147.48 161.27 134.83 161.27 128.41 159.34 117.36 164.91 127.07 160.04 103.6 151.83 89.38 159.34 97.3 149.69 82.43 135.08 65.77 120.38 65.77 128.4 64.53 112.85 63.32 106.3 65.19 103.45 66.57 100.64 68.53 107.67 82.16 110.3 82.43"/><polygon class="cls-14" points="106.63 120.98 98.94 128.01 96.63 135.65 99.04 144.23 110.23 149.26 120.58 148.31 128.36 138.54 124.3 125.73 118.21 122.1 106.63 120.98"/><polygon class="cls-14" points="154.72 150.21 162.26 143.04 164.44 135.36 161.86 126.82 150.68 121.04 144.56 123.92 138.8 133.84 137.63 138.58 142.22 146.42 148.38 149.93 154.72 150.21"/><polygon class="cls-15" points="124.87 127.51 127.22 132.94 132.63 131.94 138.37 133.75 142.73 127.07 138.86 135.94 138.61 138.37 140.91 144.18 137.63 138.58 137.98 135.05 132.44 132.59 127.49 133.75 128.74 138.73 124.3 143.64 128.03 138.4 124.87 127.51"/><polygon class="cls-4" points="147.21 147.17 153.43 147.7 160.64 141.54 162.63 135.02 159.64 141.36 153.38 146.94 147.21 147.17"/><polygon class="cls-4" points="125.58 137.91 119.69 145.69 110.52 147.33 108.05 146.76 110.33 148.31 120.26 147.08 125.58 137.91"/></svg>