<svg id="Capa_2" data-name="Capa 2" xmlns="http://www.w3.org/2000/svg" viewBox="0 0 236.01 341.91"><defs><style>.cls-1{fill:#f5dc31;}.cls-16,.cls-2,.cls-3,.cls-4,.cls-5,.cls-8{fill:#fff;}.cls-12,.cls-2{opacity:0.2;}.cls-3{opacity:0.4;}.cls-4{opacity:0.3;}.cls-5{opacity:0.1;}.cls-6{fill:#262420;}.cls-7{fill:#0e1722;}.cls-9{fill:#c4c8d5;}.cls-10{fill:#e0eaf2;}.cls-11{fill:#2b526c;}.cls-12,.cls-13{fill:#353129;}.cls-14{fill:#444;}.cls-15{fill:#141414;}.cls-16{opacity:0.15;}</style></defs><polygon class="cls-1" points="236.01 289.23 236.01 16.28 155.43 0 42.71 69.7 0 126.57 26.17 184.9 0 218.8 44.9 297.42 175.27 321.04 236.01 289.23"/><polygon class="cls-2" points="155.43 0 236.01 16.28 187.51 83.13 155.43 0"/><polygon class="cls-3" points="187.51 83.13 105.12 31.11 155.43 0 187.51 83.13"/><polygon class="cls-3" points="187.51 83.13 236.01 217.21 236.01 16.28 187.51 83.13"/><polygon class="cls-4" points="26.17 184.9 42.71 69.7 0 126.57 26.17 184.9"/><polygon class="cls-5" points="187.51 83.13 127.07 156.55 105.12 31.11 187.51 83.13"/><polygon class="cls-5" points="105.12 31.11 42.71 69.7 127.07 156.55 105.12 31.11"/><polygon class="cls-5" points="127.07 156.55 26.17 184.9 63.63 135.47 127.07 156.55"/><polygon class="cls-2" points="42.71 69.7 63.63 135.47 26.17 184.9 42.71 69.7"/><polygon class="cls-2" points="127.07 156.55 175.27 321.04 187.51 83.13 127.07 156.55"/><polygon class="cls-2" points="45.56 296.04 127.07 156.55 34.35 242.31 45.56 296.04"/><polygon class="cls-3" points="26.17 184.9 34.35 242.31 127.07 156.55 26.17 184.9"/><polygon class="cls-5" points="175.27 321.04 49.43 297.74 149.06 231.62 175.27 321.04"/><polygon class="cls-6" points="68.24 162.09 63.78 173.2 67.88 168.21 69.6 178.13 70.5 173.08 70.79 182.94 73.64 180.38 142.61 180.68 146.65 189.89 148.38 182.23 150.28 187.81 152.06 174.03 153.13 182.05 154.32 173.97 158.59 167.14 158.59 168.21 157.76 156.56 118.08 162.27 68.24 162.09"/><polygon class="cls-7" points="72.69 184.6 142.7 188.56 149.92 205.51 182.24 237.83 185.56 274.9 53.92 294.38 47.98 219.53 63.9 204.33 65.21 188.17 72.69 184.6"/><path class="cls-8" d="M82.09,82.75s29.47-11.17,45.39-2.85,26.61,25.19,30.17,41.11S155,165.92,155,165.92l-5.85,1.54-6.27,17.95-2.14,19.48L159,217.25,133.18,319.43s-62.26-.48-61.55-1.19-5.46-108.36-5.46-108.36l8.55-10.45-.23-23.53-4.28-10.46-5.35-3.68-5-20.94,7.84-17.64S66.88,89.29,82.09,82.75Z"/><polygon class="cls-9" points="82.2 267.3 98.83 288.68 115.94 286.31 143.98 256.01 147.54 338.82 93.13 336.33 63.78 319.34 82.2 267.3"/><polygon class="cls-10" points="145.17 221.67 134.47 272.29 138.28 334.45 172.97 310.54 172.97 248.29 145.17 221.67"/><path class="cls-11" d="M72.69,184.6s-6.89,2.85-6.41,4.28,6.41,22.57,6.41,22.57L71.5,227.38l20.92,21.38-8.56,15.45,6.65,1.9-.23,20-5.47,41.35L19.7,284.64l-8.55-62.49L34.2,211.22l22.33-6.89,6.18-4.76,1.43-12.32Z"/><polygon class="cls-11" points="142.7 188.56 149.21 198.03 150.63 203.61 179.62 217.63 221.92 238.78 235.7 289.16 213.6 327.42 137.8 341.91 159.16 256.01 147.54 244.72 150.16 228.56 145.17 221.67 145.64 198.03 142.7 188.56"/><polygon class="cls-12" points="77.94 177.47 98.47 198.74 120.1 199.93 135.9 189.36 120.57 204.21 105.13 201.83 98.59 200.76 77.94 177.47"/><polygon class="cls-13" points="57.72 129.36 57.72 145.75 61.76 139.57 61.76 158.82 69.37 135.65 71.03 128.05 71.03 115.34 77.03 97.45 86.53 87.47 94.5 85.22 97.21 82.69 95.55 70.02 88.29 68.02 71.86 76.13 58.67 101.91 57.72 129.36"/><polygon class="cls-13" points="96.28 80.14 97.61 82.54 110.21 84.33 123.66 88.6 134.44 96.36 143.8 116.14 144.43 112.66 149.15 134.41 149.15 129.95 150.57 149.02 146.47 166.31 155.39 152.41 158.23 145.53 155.56 163.88 159.16 158.82 159.16 163.1 166.79 151.34 165.9 157.22 169.47 149.55 168.04 128.35 169.47 135.47 170.36 122.39 165.72 105.36 161.8 99.12 168.57 107.14 166.44 99.83 153.73 78.42 133.31 65.77 112.26 62.85 100.67 66.15 95.55 70.02 96.28 80.14"/><polygon class="cls-12" points="82.96 192.21 91.27 219.65 100.66 234.38 89.61 220.25 82.96 192.21"/><polygon class="cls-12" points="132.26 200.05 124.78 214.19 118.01 220.96 126.2 214.54 132.26 200.05"/><polygon class="cls-14" points="84.98 117.47 77.3 124.5 74.98 132.14 77.39 140.72 88.59 145.75 98.93 144.81 106.72 135.03 102.66 122.22 96.56 118.59 84.98 117.47"/><polygon class="cls-14" points="138.34 147.31 145.89 140.15 148.06 132.46 145.48 123.92 134.3 118.14 122.91 120.42 117.15 130.33 115.98 135.07 120.58 142.91 126.74 146.42 138.34 147.31"/><polygon class="cls-15" points="103.22 124 105.58 129.43 110.98 128.44 116.73 130.24 121.08 123.56 117.22 132.43 116.96 134.86 119.27 140.67 115.98 135.07 116.33 131.54 110.8 129.08 105.84 130.24 107.09 135.22 102.66 140.13 106.38 134.89 103.22 124"/><polygon class="cls-16" points="125.57 143.67 137.05 144.81 144.26 138.64 146.25 132.12 143.26 138.46 137 144.05 125.57 143.67"/><polygon class="cls-16" points="103.93 134.4 98.05 142.18 88.87 143.82 86.41 143.25 88.69 144.81 98.62 143.57 103.93 134.4"/></svg>